<mxfile host="app.diagrams.net" agent="Mozilla/5.0 (Macintosh; Intel Mac OS X 10_15_7) AppleWebKit/537.36 (KHTML, like Gecko) Chrome/131.0.0.0 Safari/537.36" version="25.0.3">
  <diagram name="Page-1" id="vhnvMHrt_a1CEZoYM-v-">
    <mxGraphModel dx="1593" dy="872" grid="1" gridSize="10" guides="1" tooltips="1" connect="1" arrows="1" fold="1" page="1" pageScale="1" pageWidth="850" pageHeight="1100" math="0" shadow="0">
      <root>
        <mxCell id="0" />
        <mxCell id="1" parent="0" />
        <mxCell id="mci8jlUVSB_yOoJ_BDAq-1" value="Ireland" style="points=[[0,0],[0.25,0],[0.5,0],[0.75,0],[1,0],[1,0.25],[1,0.5],[1,0.75],[1,1],[0.75,1],[0.5,1],[0.25,1],[0,1],[0,0.75],[0,0.5],[0,0.25]];outlineConnect=0;gradientColor=none;html=1;whiteSpace=wrap;fontSize=12;fontStyle=0;container=1;pointerEvents=0;collapsible=0;recursiveResize=0;shape=mxgraph.aws4.group;grIcon=mxgraph.aws4.group_region;strokeColor=#00A4A6;fillColor=none;verticalAlign=top;align=left;spacingLeft=30;fontColor=#147EBA;dashed=1;" vertex="1" parent="1">
          <mxGeometry x="40" y="80" width="230" height="190" as="geometry" />
        </mxCell>
        <mxCell id="mci8jlUVSB_yOoJ_BDAq-3" value="VPC" style="points=[[0,0],[0.25,0],[0.5,0],[0.75,0],[1,0],[1,0.25],[1,0.5],[1,0.75],[1,1],[0.75,1],[0.5,1],[0.25,1],[0,1],[0,0.75],[0,0.5],[0,0.25]];outlineConnect=0;gradientColor=none;html=1;whiteSpace=wrap;fontSize=12;fontStyle=0;container=1;pointerEvents=0;collapsible=0;recursiveResize=0;shape=mxgraph.aws4.group;grIcon=mxgraph.aws4.group_vpc2;strokeColor=#8C4FFF;fillColor=none;verticalAlign=top;align=left;spacingLeft=30;fontColor=#AAB7B8;dashed=0;" vertex="1" parent="mci8jlUVSB_yOoJ_BDAq-1">
          <mxGeometry x="60" y="40" width="130" height="130" as="geometry" />
        </mxCell>
        <mxCell id="mci8jlUVSB_yOoJ_BDAq-6" style="edgeStyle=orthogonalEdgeStyle;rounded=0;orthogonalLoop=1;jettySize=auto;html=1;entryX=0.5;entryY=1;entryDx=0;entryDy=0;startArrow=classic;startFill=1;" edge="1" parent="1" source="mci8jlUVSB_yOoJ_BDAq-5" target="mci8jlUVSB_yOoJ_BDAq-1">
          <mxGeometry relative="1" as="geometry" />
        </mxCell>
        <mxCell id="mci8jlUVSB_yOoJ_BDAq-7" value="直线距离：5300公里&lt;div&gt;单程理论通信延时：26 ms&lt;/div&gt;&lt;div&gt;实测双程（ping - RTT）：150ms&lt;/div&gt;" style="edgeLabel;html=1;align=center;verticalAlign=middle;resizable=0;points=[];" vertex="1" connectable="0" parent="mci8jlUVSB_yOoJ_BDAq-6">
          <mxGeometry x="0.0154" y="1" relative="1" as="geometry">
            <mxPoint as="offset" />
          </mxGeometry>
        </mxCell>
        <mxCell id="mci8jlUVSB_yOoJ_BDAq-5" value="&amp;nbsp;Lagos, Nigeria" style="sketch=0;outlineConnect=0;gradientColor=none;html=1;whiteSpace=wrap;fontSize=12;fontStyle=0;shape=mxgraph.aws4.group;grIcon=mxgraph.aws4.group_on_premise;strokeColor=#858B94;fillColor=none;verticalAlign=top;align=left;spacingLeft=30;fontColor=#858B94;dashed=0;" vertex="1" parent="1">
          <mxGeometry x="90" y="520" width="130" height="130" as="geometry" />
        </mxCell>
        <mxCell id="mci8jlUVSB_yOoJ_BDAq-8" value="Ireland" style="points=[[0,0],[0.25,0],[0.5,0],[0.75,0],[1,0],[1,0.25],[1,0.5],[1,0.75],[1,1],[0.75,1],[0.5,1],[0.25,1],[0,1],[0,0.75],[0,0.5],[0,0.25]];outlineConnect=0;gradientColor=none;html=1;whiteSpace=wrap;fontSize=12;fontStyle=0;container=1;pointerEvents=0;collapsible=0;recursiveResize=0;shape=mxgraph.aws4.group;grIcon=mxgraph.aws4.group_region;strokeColor=#00A4A6;fillColor=none;verticalAlign=top;align=left;spacingLeft=30;fontColor=#147EBA;dashed=1;" vertex="1" parent="1">
          <mxGeometry x="400" y="80" width="390" height="190" as="geometry" />
        </mxCell>
        <mxCell id="mci8jlUVSB_yOoJ_BDAq-9" value="VPC" style="points=[[0,0],[0.25,0],[0.5,0],[0.75,0],[1,0],[1,0.25],[1,0.5],[1,0.75],[1,1],[0.75,1],[0.5,1],[0.25,1],[0,1],[0,0.75],[0,0.5],[0,0.25]];outlineConnect=0;gradientColor=none;html=1;whiteSpace=wrap;fontSize=12;fontStyle=0;container=1;pointerEvents=0;collapsible=0;recursiveResize=0;shape=mxgraph.aws4.group;grIcon=mxgraph.aws4.group_vpc2;strokeColor=#8C4FFF;fillColor=none;verticalAlign=top;align=left;spacingLeft=30;fontColor=#AAB7B8;dashed=0;" vertex="1" parent="mci8jlUVSB_yOoJ_BDAq-8">
          <mxGeometry x="10" y="40" width="370" height="130" as="geometry" />
        </mxCell>
        <mxCell id="mci8jlUVSB_yOoJ_BDAq-19" value="" style="sketch=0;points=[[0,0,0],[0.25,0,0],[0.5,0,0],[0.75,0,0],[1,0,0],[0,1,0],[0.25,1,0],[0.5,1,0],[0.75,1,0],[1,1,0],[0,0.25,0],[0,0.5,0],[0,0.75,0],[1,0.25,0],[1,0.5,0],[1,0.75,0]];outlineConnect=0;fontColor=#232F3E;fillColor=#ED7100;strokeColor=#ffffff;dashed=0;verticalLabelPosition=bottom;verticalAlign=top;align=center;html=1;fontSize=12;fontStyle=0;aspect=fixed;shape=mxgraph.aws4.resourceIcon;resIcon=mxgraph.aws4.ec2;" vertex="1" parent="mci8jlUVSB_yOoJ_BDAq-9">
          <mxGeometry x="75" y="40" width="50" height="50" as="geometry" />
        </mxCell>
        <mxCell id="mci8jlUVSB_yOoJ_BDAq-20" value="" style="sketch=0;points=[[0,0,0],[0.25,0,0],[0.5,0,0],[0.75,0,0],[1,0,0],[0,1,0],[0.25,1,0],[0.5,1,0],[0.75,1,0],[1,1,0],[0,0.25,0],[0,0.5,0],[0,0.75,0],[1,0.25,0],[1,0.5,0],[1,0.75,0]];outlineConnect=0;fontColor=#232F3E;fillColor=#ED7100;strokeColor=#ffffff;dashed=0;verticalLabelPosition=bottom;verticalAlign=top;align=center;html=1;fontSize=12;fontStyle=0;aspect=fixed;shape=mxgraph.aws4.resourceIcon;resIcon=mxgraph.aws4.ec2;" vertex="1" parent="mci8jlUVSB_yOoJ_BDAq-9">
          <mxGeometry x="235" y="40" width="50" height="50" as="geometry" />
        </mxCell>
        <mxCell id="mci8jlUVSB_yOoJ_BDAq-23" style="edgeStyle=orthogonalEdgeStyle;rounded=0;orthogonalLoop=1;jettySize=auto;html=1;entryX=0;entryY=0.25;entryDx=0;entryDy=0;entryPerimeter=0;exitX=1;exitY=0.25;exitDx=0;exitDy=0;exitPerimeter=0;" edge="1" parent="mci8jlUVSB_yOoJ_BDAq-9" source="mci8jlUVSB_yOoJ_BDAq-19" target="mci8jlUVSB_yOoJ_BDAq-20">
          <mxGeometry relative="1" as="geometry" />
        </mxCell>
        <mxCell id="mci8jlUVSB_yOoJ_BDAq-25" value="2: 内部请求" style="edgeLabel;html=1;align=center;verticalAlign=middle;resizable=0;points=[];" vertex="1" connectable="0" parent="mci8jlUVSB_yOoJ_BDAq-23">
          <mxGeometry x="-0.2364" relative="1" as="geometry">
            <mxPoint x="8" y="-10" as="offset" />
          </mxGeometry>
        </mxCell>
        <mxCell id="mci8jlUVSB_yOoJ_BDAq-29" style="edgeStyle=orthogonalEdgeStyle;rounded=0;orthogonalLoop=1;jettySize=auto;html=1;entryX=1;entryY=0.75;entryDx=0;entryDy=0;entryPerimeter=0;exitX=0;exitY=0.75;exitDx=0;exitDy=0;exitPerimeter=0;dashed=1;" edge="1" parent="mci8jlUVSB_yOoJ_BDAq-9" source="mci8jlUVSB_yOoJ_BDAq-20" target="mci8jlUVSB_yOoJ_BDAq-19">
          <mxGeometry relative="1" as="geometry" />
        </mxCell>
        <mxCell id="mci8jlUVSB_yOoJ_BDAq-30" value="5: 内部响应" style="edgeLabel;html=1;align=center;verticalAlign=middle;resizable=0;points=[];" vertex="1" connectable="0" parent="mci8jlUVSB_yOoJ_BDAq-29">
          <mxGeometry x="0.1911" y="-1" relative="1" as="geometry">
            <mxPoint x="16" y="14" as="offset" />
          </mxGeometry>
        </mxCell>
        <mxCell id="mci8jlUVSB_yOoJ_BDAq-31" value="支付网络系统" style="text;html=1;align=center;verticalAlign=middle;whiteSpace=wrap;rounded=0;" vertex="1" parent="mci8jlUVSB_yOoJ_BDAq-9">
          <mxGeometry x="285" y="50" width="60" height="30" as="geometry" />
        </mxCell>
        <mxCell id="mci8jlUVSB_yOoJ_BDAq-32" value="业务系统" style="text;html=1;align=center;verticalAlign=middle;whiteSpace=wrap;rounded=0;" vertex="1" parent="mci8jlUVSB_yOoJ_BDAq-9">
          <mxGeometry x="15" y="50" width="60" height="30" as="geometry" />
        </mxCell>
        <mxCell id="mci8jlUVSB_yOoJ_BDAq-12" value="&amp;nbsp;Lagos, Nigeria" style="sketch=0;outlineConnect=0;gradientColor=none;html=1;whiteSpace=wrap;fontSize=12;fontStyle=0;shape=mxgraph.aws4.group;grIcon=mxgraph.aws4.group_on_premise;strokeColor=#858B94;fillColor=none;verticalAlign=top;align=left;spacingLeft=30;fontColor=#858B94;dashed=0;" vertex="1" parent="1">
          <mxGeometry x="400" y="520" width="400" height="130" as="geometry" />
        </mxCell>
        <mxCell id="mci8jlUVSB_yOoJ_BDAq-13" value="Customer App" style="sketch=0;outlineConnect=0;fontColor=#232F3E;gradientColor=none;strokeColor=#232F3E;fillColor=#ffffff;dashed=0;verticalLabelPosition=bottom;verticalAlign=top;align=center;html=1;fontSize=12;fontStyle=0;aspect=fixed;shape=mxgraph.aws4.resourceIcon;resIcon=mxgraph.aws4.mobile_client;" vertex="1" parent="1">
          <mxGeometry x="475" y="565" width="60" height="60" as="geometry" />
        </mxCell>
        <mxCell id="mci8jlUVSB_yOoJ_BDAq-14" value="Bank （eg. NIBSS）" style="sketch=0;outlineConnect=0;fontColor=#232F3E;gradientColor=none;strokeColor=#232F3E;fillColor=#ffffff;dashed=0;verticalLabelPosition=bottom;verticalAlign=top;align=center;html=1;fontSize=12;fontStyle=0;aspect=fixed;shape=mxgraph.aws4.resourceIcon;resIcon=mxgraph.aws4.bank;" vertex="1" parent="1">
          <mxGeometry x="645" y="565" width="60" height="60" as="geometry" />
        </mxCell>
        <mxCell id="mci8jlUVSB_yOoJ_BDAq-21" style="edgeStyle=orthogonalEdgeStyle;rounded=0;orthogonalLoop=1;jettySize=auto;html=1;entryX=0.25;entryY=1;entryDx=0;entryDy=0;entryPerimeter=0;" edge="1" parent="1" source="mci8jlUVSB_yOoJ_BDAq-13" target="mci8jlUVSB_yOoJ_BDAq-19">
          <mxGeometry relative="1" as="geometry">
            <Array as="points">
              <mxPoint x="450" y="595" />
              <mxPoint x="450" y="320" />
              <mxPoint x="498" y="320" />
            </Array>
          </mxGeometry>
        </mxCell>
        <mxCell id="mci8jlUVSB_yOoJ_BDAq-22" value="1 - 发起转账" style="edgeLabel;html=1;align=center;verticalAlign=middle;resizable=0;points=[];" vertex="1" connectable="0" parent="mci8jlUVSB_yOoJ_BDAq-21">
          <mxGeometry x="-0.1042" y="-1" relative="1" as="geometry">
            <mxPoint as="offset" />
          </mxGeometry>
        </mxCell>
        <mxCell id="mci8jlUVSB_yOoJ_BDAq-24" style="edgeStyle=orthogonalEdgeStyle;rounded=0;orthogonalLoop=1;jettySize=auto;html=1;exitX=0.25;exitY=1;exitDx=0;exitDy=0;exitPerimeter=0;entryX=0;entryY=0.458;entryDx=0;entryDy=0;entryPerimeter=0;" edge="1" parent="1" source="mci8jlUVSB_yOoJ_BDAq-20" target="mci8jlUVSB_yOoJ_BDAq-14">
          <mxGeometry relative="1" as="geometry">
            <Array as="points">
              <mxPoint x="658" y="280" />
              <mxPoint x="658" y="280" />
              <mxPoint x="658" y="320" />
              <mxPoint x="610" y="320" />
              <mxPoint x="610" y="592" />
            </Array>
          </mxGeometry>
        </mxCell>
        <mxCell id="mci8jlUVSB_yOoJ_BDAq-26" value="Step 3: 调用支付通道付款" style="edgeLabel;html=1;align=center;verticalAlign=middle;resizable=0;points=[];" vertex="1" connectable="0" parent="mci8jlUVSB_yOoJ_BDAq-24">
          <mxGeometry x="0.0919" y="1" relative="1" as="geometry">
            <mxPoint x="26" y="-2" as="offset" />
          </mxGeometry>
        </mxCell>
        <mxCell id="mci8jlUVSB_yOoJ_BDAq-27" style="edgeStyle=orthogonalEdgeStyle;rounded=0;orthogonalLoop=1;jettySize=auto;html=1;entryX=0.75;entryY=1;entryDx=0;entryDy=0;entryPerimeter=0;dashed=1;" edge="1" parent="1">
          <mxGeometry relative="1" as="geometry">
            <mxPoint x="697" y="592" as="sourcePoint" />
            <mxPoint x="677.5" y="212" as="targetPoint" />
            <Array as="points">
              <mxPoint x="740" y="592" />
              <mxPoint x="740" y="320" />
              <mxPoint x="678" y="320" />
            </Array>
          </mxGeometry>
        </mxCell>
        <mxCell id="mci8jlUVSB_yOoJ_BDAq-28" value="Step 4: 返回付款结果" style="edgeLabel;html=1;align=center;verticalAlign=middle;resizable=0;points=[];" vertex="1" connectable="0" parent="mci8jlUVSB_yOoJ_BDAq-27">
          <mxGeometry x="-0.2782" y="2" relative="1" as="geometry">
            <mxPoint as="offset" />
          </mxGeometry>
        </mxCell>
        <mxCell id="mci8jlUVSB_yOoJ_BDAq-33" style="edgeStyle=orthogonalEdgeStyle;rounded=0;orthogonalLoop=1;jettySize=auto;html=1;entryX=1.018;entryY=0.508;entryDx=0;entryDy=0;entryPerimeter=0;dashed=1;" edge="1" parent="1" source="mci8jlUVSB_yOoJ_BDAq-19" target="mci8jlUVSB_yOoJ_BDAq-13">
          <mxGeometry relative="1" as="geometry">
            <mxPoint x="530" y="500" as="targetPoint" />
            <Array as="points">
              <mxPoint x="520" y="320" />
              <mxPoint x="570" y="320" />
              <mxPoint x="570" y="596" />
            </Array>
          </mxGeometry>
        </mxCell>
      </root>
    </mxGraphModel>
  </diagram>
</mxfile>
